HIERARCHY
ROOT Hips
{
  OFFSET 0 33.9601 0
  CHANNELS 6 Xposition Yposition Zposition Zrotation Xrotation Yrotation
  JOINT RightHipJoint
  {
    OFFSET 0 0 0
    CHANNELS 3 Zrotation Xrotation Yrotation
    JOINT RightUpLeg
    {
      OFFSET -2.97451 -2.05947 0
      CHANNELS 3 Zrotation Xrotation Yrotation
      JOINT RightLeg
      {
        OFFSET 0 -16.9295 0
        CHANNELS 3 Zrotation Xrotation Yrotation
        JOINT RightFoot
        {
          OFFSET 0 -12.3084 0
          CHANNELS 3 Zrotation Xrotation Yrotation
          JOINT RightToeBase
          {
            OFFSET 0 -1.45952 4.1706
            CHANNELS 3 Zrotation Xrotation Yrotation
            End Site
            {
              OFFSET 0 0.380528 1.88646
            }
          }
        }
      }
    }
  }
  JOINT LeftHipJoint
  {
    OFFSET 0 0 0
    CHANNELS 3 Zrotation Xrotation Yrotation
    JOINT LeftUpLeg
    {
      OFFSET 2.97451 -2.05947 0
      CHANNELS 3 Zrotation Xrotation Yrotation
      JOINT LeftLeg
      {
        OFFSET 0 -16.9295 0
        CHANNELS 3 Zrotation Xrotation Yrotation
        JOINT LeftFoot
        {
          OFFSET 0 -12.3084 0
          CHANNELS 3 Zrotation Xrotation Yrotation
          JOINT LeftToeBase
          {
            OFFSET 0 -1.45952 4.1706
            CHANNELS 3 Zrotation Xrotation Yrotation
            End Site
            {
              OFFSET 0 0.380528 1.88646
            }
          }
        }
      }
    }
  }
  JOINT LowerBack
  {
    OFFSET -0.0036625 0.510784 -2.23482
    CHANNELS 3 Zrotation Xrotation Yrotation
    JOINT Spine
    {
      OFFSET 0.00406798 3.05724 0.271409
      CHANNELS 3 Zrotation Xrotation Yrotation
      JOINT Spine1
      {
        OFFSET 0 3.94532 0.605325
        CHANNELS 3 Zrotation Xrotation Yrotation
        JOINT RightShoulder
        {
          OFFSET -2.46238 6.7817 0.985371
          CHANNELS 3 Zrotation Xrotation Yrotation
          JOINT RightDummyShoulder
          {
            OFFSET 0 0 0
            CHANNELS 3 Zrotation Xrotation Yrotation
            JOINT RightArm
            {
              OFFSET -3.41514 0.382168 0.208038
              CHANNELS 3 Zrotation Xrotation Yrotation
              JOINT RightForeArm
              {
                OFFSET -6.74994 0 -0.448006
                CHANNELS 3 Zrotation Xrotation Yrotation
                JOINT RightHand
                {
                  OFFSET -7.67291 0 0
                  CHANNELS 3 Zrotation Xrotation Yrotation
                  End Site
                  {
                    OFFSET -3.75012 0 0
                  }
                }
              }
            }
          }
        }
        JOINT LeftShoulder
        {
          OFFSET 2.46238 6.7817 0.985371
          CHANNELS 3 Zrotation Xrotation Yrotation
          JOINT LeftDummyShoulder
          {
            OFFSET 0 0 0
            CHANNELS 3 Zrotation Xrotation Yrotation
            JOINT LeftArm
            {
              OFFSET 3.41514 0.382168 0.208038
              CHANNELS 3 Zrotation Xrotation Yrotation
              JOINT LeftForeArm
              {
                OFFSET 6.74994 0 -0.448006
                CHANNELS 3 Zrotation Xrotation Yrotation
                JOINT LeftHand
                {
                  OFFSET 7.67291 0 0
                  CHANNELS 3 Zrotation Xrotation Yrotation
                  End Site
                  {
                    OFFSET 3.75012 0 0
                  }
                }
              }
            }
          }
        }
        JOINT Neck
        {
          OFFSET 0 7.72218 0.649176
          CHANNELS 3 Zrotation Xrotation Yrotation
          JOINT Head
          {
            OFFSET 0 2.8134 0.8129
            CHANNELS 3 Zrotation Xrotation Yrotation
            End Site
            {
              OFFSET 0 3.18746 0.758962
            }
          }
        }
      }
    }
  }
}
MOTION
Frames:	10
Frame Time:	0.0333333
-2.66566 36.5011 2.54394 4.00878 -5.82885 6.11244 -1.98785e-16 1.59028e-15 7.95139e-16 -0.710373 -2.04639 2.48773 0.00035069 36.1138 -0.310252 -18.7522 -13.9362 2.00912 2.13932e-06 0.798301 -6.62665e-07 -1.98785e-16 1.59028e-15 7.95139e-16 -3.62568 -2.95627 -3.19614 -1.26013e-06 38.5723 0.051846 2.8981 -9.37634 -12.8142 -9.67252e-08 -11.239 6.87458e-07 -1.98785e-16 1.59028e-15 7.95139e-16 -0.240996 -5.77661 1.81066 -0.25165 9.3585 -0.00377877 3.78357 12.7287 -21.9477 -1.59028e-15 3.18055e-15 -3.18055e-15 67.2428 -30.3255 14.1952 0.000164146 -0.000196407 79.5331 -38.4036 -27.9142 11.5888 -3.57865 18.7328 16.8185 7.95139e-16 3.18055e-15 6.36111e-15 -73.2076 -28.5291 -18.045 -0.000133269 -0.000238034 -70.7734 18.7162 -32.9149 -18.6993 -2.42819 -0.888951 -6.02759 2.94163 -2.74049 1.13157 
-2.78524 34.2128 2.15983 4.05608 -6.27762 4.91885 -1.98785e-16 0 1.59028e-15 0.367083 -3.88602 6.98996 -0.0141256 39.9973 -0.429419 -22.6466 -21.4005 3.24635 6.34019e-08 2.5206 5.94308e-07 -1.98785e-16 0 1.59028e-15 -3.36996 -6.06743 -8.00568 -4.81767e-05 43.2672 0.018754 0.705115 -7.00477 -17.344 -3.79044e-07 -10.5334 -5.19355e-06 -1.98785e-16 0 1.59028e-15 -0.626341 -4.25395 2.22375 -0.0338335 9.2006 0.515212 4.0724 12.1383 -20.1524 -3.97569e-16 0 -1.59028e-15 65.0755 -26.8426 20.928 0.000191151 -0.000195269 86.0892 -38.4564 -20.2717 12.4074 -4.26387 18.4624 16.2599 -8.82781e-32 1.59028e-15 3.18055e-15 -71.8342 -27.4916 -24.338 -0.000160772 -0.000198562 -81.297 12.8167 -22.1545 -15.4675 -2.94112 -1.53546 -5.93902 2.81956 -5.79722 1.21474 
-2.93387 31.6853 1.71929 3.27954 -7.301 3.74338 1.98785e-16 3.18055e-15 7.95139e-16 2.66102 -6.03131 7.82916 -0.000215098 51.356 -1.0747 -48.428 -34.1454 -15.3374 -1.07304e-06 -2.9247 5.27739e-06 1.98785e-16 3.18055e-15 7.95139e-16 -1.68952 -9.67704 -10.4936 0.00186749 55.8459 -0.155104 -5.45316 -25.2198 -24.1779 -3.49438e-07 -13.2859 -9.83564e-08 1.98785e-16 3.18055e-15 7.95139e-16 -0.383047 -1.25299 3.03911 -0.0498752 8.79782 1.26253 4.19171 12.8002 -19.5823 -7.95139e-16 3.18055e-15 -0 62.1426 -23.1158 28.993 0.00053298 -0.000243233 86.0143 -38.5595 -7.91528 16.5237 -4.12647 19.0415 16.0117 -1.59028e-15 0 -0 -68.8135 -25.1542 -33.1481 -0.000137028 -0.000205371 -88.3185 5.36168 -8.0129 -8.93581 -2.96016 -2.83426 -6.5057 2.48645 -11.0889 1.00269 
-3.02399 30.4332 1.11229 1.65833 -3.09251 2.7487 2.48481e-17 7.95139e-16 -7.95139e-16 5.61493 -13.5741 7.6653 -0.000155521 57.116 -1.34973 -53.9491 -36.2704 -26.2526 -1.08104e-06 -1.4253 2.544e-06 2.48481e-17 7.95139e-16 -7.95139e-16 -0.0466761 -16.6212 -8.72658 1.67945e-05 61.5555 -0.281153 -8.89991 -34.9998 -24.5654 -1.06291e-06 -10.1027 -5.1183e-06 2.48481e-17 7.95139e-16 -7.95139e-16 0.0990538 -2.18342 3.76438 0.355587 7.16206 1.8227 4.02065 13.0786 -19.266 -7.95139e-16 3.18055e-15 1.59028e-15 57.3942 -16.7878 34.726 -0.00114289 -0.000133307 75.252 -40.3862 0.664762 18.5144 -2.91321 19.0762 15.2138 1.59028e-15 -3.18055e-15 -3.18055e-15 -64.6842 -19.6499 -37.3742 -0.00220109 -0.000449264 -90.9763 -2.16758 5.95403 0.823892 -2.69985 -5.57822 -7.27918 1.56513 -12.175 1.21778 
-2.98214 31.3101 0.607257 2.40756 -2.73129 3.87261 -9.93923e-17 -7.95139e-16 -0 3.58514 -14.4413 5.1286 0.000214745 53.8958 -1.1147 -47.0944 -33.5116 -17.8842 1.26764e-06 -4.4343 6.19637e-06 -9.93923e-17 -7.95139e-16 -0 -1.7846 -16.1778 -6.94081 -6.40883e-05 56.3321 -0.107587 -3.50767 -29.4724 -17.5101 5.33122e-07 -12.2573 5.1409e-06 -9.93923e-17 -7.95139e-16 -0 -0.659378 -1.97345 2.80787 0.643135 7.64818 0.85456 4.38979 12.9051 -17.1947 -0 -3.18055e-15 -0 51.6161 -7.06098 36.8336 -0.080963 0.00524863 56.2572 -31.8919 -3.87986 7.6832 -3.27378 20.1556 13.9092 3.53113e-31 -3.18055e-15 6.36111e-15 -60.2699 -10.8907 -37.0273 0.000408153 -0.0001765 -84.2731 -1.75264 13.8251 7.21995 -3.16155 -6.57406 -7.18752 2.12616 -12.9118 1.62746 
-2.93262 33.6508 0.351791 2.03522 -3.37189 7.11077 3.47873e-16 3.97569e-16 -0 1.67272 -7.09597 2.04645 -0.000270126 35.0552 -0.387004 -25.2704 -25.7964 0.0630896 -1.86315e-07 1.5086 -5.11962e-06 3.47873e-16 3.97569e-16 -0 -1.42942 -10.8233 -8.80079 -0.0001548 40.0072 -0.0386469 -1.75476 -11.1057 -16.809 1.46753e-07 -16.2905 1.37539e-06 3.47873e-16 3.97569e-16 -0 -0.388962 -2.55543 2.31661 1.08946 8.36511 0.298868 5.33842 13.0468 -16.4651 3.97569e-16 6.36111e-15 -3.18055e-15 49.8622 2.65591 36.7251 -0.0112618 0.000641389 32.0004 -16.7502 -6.72825 -1.84077 -3.35361 19.8823 12.5467 1.59028e-15 6.36111e-15 -0 -56.7239 1.98689 -38.9578 -0.000134354 -0.000135919 -63.0461 -1.32797 16.5996 10.0623 -3.12988 -5.96993 -8.22056 2.43035 -10.6591 0.256621 
-2.88549 36.2176 -0.0136256 2.07063 -2.83846 8.70513 1.98785e-16 0 3.18055e-15 0.763973 -3.40103 4.48514 0.00136235 20.0913 -0.136737 -13.3103 -3.71697 5.03068 -1.50147e-06 1.441 -1.0584e-06 1.98785e-16 0 3.18055e-15 -1.46576 -7.6942 -9.62668 0.00049433 24.4698 -0.089035 -7.85939 13.1984 -10.8788 6.75481e-07 -18.677 2.33997e-06 1.98785e-16 0 3.18055e-15 -0.191631 -2.94056 2.73217 0.794231 6.81289 0.707953 5.49864 11.316 -15.7843 -0 -1.59028e-15 -0 53.2976 11.259 32.8353 -0.00135593 8.04536e-05 10.3177 -5.63938 -11.1923 -4.83386 -2.06657 18.1873 11.0535 7.95139e-16 -9.54166e-15 -3.18055e-15 -59.6216 11.2926 -39.4048 0.0945055 0.00619202 -35.3354 -4.45586 7.0181 8.49884 -2.53286 -6.12068 -8.8689 1.2688 -4.42791 -0.897969 
-2.86185 38.2182 -0.622963 2.33593 -2.84406 9.82309 -9.93923e-17 0 1.59028e-15 0.143768 -5.79387 -0.546704 3.87465e-06 28.5842 -0.233224 -17.5211 -5.10855 7.58218 8.45205e-07 -2.4077 -4.6933e-06 -9.93923e-17 0 1.59028e-15 -2.60042 -9.52023 -4.32632 -0.000244855 31.25 -0.089573 -5.0328 8.27378 -10.3565 -4.64649e-07 -14.8431 -2.90242e-07 -9.93923e-17 0 1.59028e-15 -0.135028 -1.69308 2.51984 0.964715 6.52972 0.442662 5.55291 10.7425 -14.9951 1.09332e-15 -1.59028e-15 3.97569e-16 63.4485 3.81594 26.0336 -5.51446e-05 3.98514e-06 3.67992 -1.72713 -19.4422 -10.4472 -2.3184 17.2182 9.08013 2.38542e-15 -6.36111e-15 -3.18055e-15 -68.9435 6.63447 -36.6287 0.00308818 0.000104536 -14.1512 -5.81162 -5.37208 5.52559 -3.66514 -6.9233 -9.17281 2.99833 -4.56587 -1.24332 
-2.89882 39.5219 -1.32179 2.77538 -3.18446 11.6476 7.95139e-16 -3.97569e-16 -0 0.6878 -10.7613 0.141974 5.97815e-05 50.2129 -0.259389 -11.4781 -14.9655 5.50597 -7.47855e-07 2.7592 9.45666e-07 7.95139e-16 -3.97569e-16 -0 -4.41351 -13.5396 -2.51103 -1.37715e-05 49.2923 -0.0827951 -1.92563 -2.14717 -12.308 9.82021e-07 -9.95989 -2.25436e-07 7.95139e-16 -3.97569e-16 -0 -0.665101 -1.02402 1.73513 1.44996 8.72257 -0.450905 5.91646 12.8729 -14.5074 1.88845e-15 0 1.98785e-16 69.9026 -6.54188 24.1599 0.000130668 -9.43562e-06 1.30883 -5.48974 -30.6325 -11.1758 -1.17808 16.9639 7.51547 -7.06225e-31 -6.36111e-15 -6.36111e-15 -77.8717 -2.5296 -35.8214 -0.00176034 -0.000117783 -0.471895 -0.879194 -24.7295 5.31323 -3.68744 -6.85079 -8.95796 3.72182 -8.53832 -1.63738 
-2.92063 40.3161 -1.61437 3.63989 -4.23761 13.6219 1.98785e-16 0 3.18055e-15 0.915212 -11.7408 0.0413722 -0.000395124 67.6144 -0.661191 -20.866 -25.53 -1.13749 1.70576e-06 3.0781 -3.95083e-06 1.98785e-16 0 3.18055e-15 -5.81869 -13.0435 -3.27578 -8.03384e-05 59.4941 0.0044242 1.4124 -12.2493 -13.452 7.05817e-07 -13.0177 -1.04704e-07 1.98785e-16 0 3.18055e-15 -0.928047 -0.72785 0.904895 0.689127 9.66465 -1.33588 5.38358 13.9598 -16.7431 -0 0 7.95139e-16 75.7983 -16.2371 21.8072 7.27571e-05 -8.98281e-07 3.15543 -18.7183 -45.354 -14.813 0.268334 19.0155 8.39876 3.18055e-15 3.18055e-15 -0 -87.6713 -16.7964 -35.3568 0.000599301 3.57479e-05 2.08632 6.08104 -45.6192 3.97751 -1.96565 -5.63486 -8.72787 1.03221 -8.45713 -1.49094 
